<svg width="55" height="568" viewBox="0 0 55 568" fill="none" xmlns="http://www.w3.org/2000/svg">
<path d="M0 1H20" stroke="white" stroke-opacity="0.4" stroke-width="1.4"/>
<path d="M0 42H32" stroke="white" stroke-width="1.4"/>
<path d="M40.936 43.04V38.6H46.192V39.536H41.92V42.536H42.064C42.144 42.376 42.248 42.224 42.376 42.08C42.504 41.928 42.652 41.796 42.82 41.684C42.996 41.572 43.192 41.484 43.408 41.42C43.624 41.348 43.864 41.312 44.128 41.312C44.512 41.312 44.864 41.376 45.184 41.504C45.512 41.632 45.792 41.812 46.024 42.044C46.256 42.276 46.436 42.556 46.564 42.884C46.7 43.212 46.768 43.576 46.768 43.976V44.192C46.768 44.592 46.704 44.972 46.576 45.332C46.448 45.684 46.26 46 46.012 46.28C45.764 46.552 45.456 46.768 45.088 46.928C44.72 47.088 44.296 47.168 43.816 47.168C43.328 47.168 42.896 47.096 42.52 46.952C42.144 46.808 41.828 46.608 41.572 46.352C41.316 46.096 41.12 45.796 40.984 45.452C40.856 45.1 40.792 44.72 40.792 44.312V43.976H41.8V44.24C41.8 44.904 41.984 45.404 42.352 45.74C42.728 46.068 43.216 46.232 43.816 46.232C44.136 46.232 44.416 46.176 44.656 46.064C44.904 45.944 45.108 45.788 45.268 45.596C45.436 45.396 45.56 45.168 45.64 44.912C45.72 44.648 45.76 44.376 45.76 44.096V44.024C45.76 43.776 45.716 43.544 45.628 43.328C45.548 43.112 45.432 42.924 45.28 42.764C45.136 42.604 44.956 42.48 44.74 42.392C44.532 42.296 44.304 42.248 44.056 42.248C43.888 42.248 43.732 42.272 43.588 42.32C43.452 42.368 43.332 42.432 43.228 42.512C43.124 42.584 43.036 42.668 42.964 42.764C42.9 42.86 42.856 42.952 42.832 43.04H40.936ZM48.1877 41.864C48.1877 40.776 48.4477 39.932 48.9677 39.332C49.4877 38.732 50.2117 38.432 51.1397 38.432C52.0677 38.432 52.7917 38.732 53.3117 39.332C53.8317 39.932 54.0917 40.776 54.0917 41.864V43.736C54.0917 44.856 53.8317 45.708 53.3117 46.292C52.7917 46.876 52.0677 47.168 51.1397 47.168C50.2117 47.168 49.4877 46.876 48.9677 46.292C48.4477 45.708 48.1877 44.856 48.1877 43.736V41.864ZM51.1397 46.256C51.7877 46.256 52.2717 46.032 52.5917 45.584C52.9197 45.128 53.0837 44.488 53.0837 43.664V41.936C53.0837 41.552 53.0437 41.204 52.9637 40.892C52.8837 40.572 52.7597 40.3 52.5917 40.076C52.4317 39.844 52.2277 39.664 51.9797 39.536C51.7397 39.408 51.4597 39.344 51.1397 39.344C50.8117 39.344 50.5277 39.408 50.2877 39.536C50.0477 39.664 49.8437 39.844 49.6757 40.076C49.5157 40.3 49.3957 40.572 49.3157 40.892C49.2357 41.204 49.1957 41.552 49.1957 41.936V43.664C49.1957 44.488 49.3557 45.128 49.6757 45.584C50.0037 46.032 50.4917 46.256 51.1397 46.256ZM50.3717 42.8C50.3717 42.592 50.4477 42.412 50.5997 42.26C50.7517 42.108 50.9317 42.032 51.1397 42.032C51.3477 42.032 51.5277 42.108 51.6797 42.26C51.8317 42.412 51.9077 42.592 51.9077 42.8C51.9077 43.008 51.8317 43.188 51.6797 43.34C51.5277 43.492 51.3477 43.568 51.1397 43.568C50.9317 43.568 50.7517 43.492 50.5997 43.34C50.4477 43.188 50.3717 43.008 50.3717 42.8Z" fill="white"/>
<path d="M0 83H20" stroke="white" stroke-opacity="0.4" stroke-width="1.4"/>
<path d="M0 115H20" stroke="white" stroke-opacity="0.4" stroke-width="1.4"/>
<path d="M0 147H20" stroke="white" stroke-opacity="0.4" stroke-width="1.4"/>
<path d="M0 179H20" stroke="white" stroke-opacity="0.4" stroke-width="1.4"/>
<path d="M0 211H20" stroke="white" stroke-opacity="0.4" stroke-width="1.4"/>
<path d="M0 243H20" stroke="white" stroke-opacity="0.4" stroke-width="1.4"/>
<path d="M0 284H32" stroke="white" stroke-width="1.4"/>
<path d="M45.436 283.048C45.436 282.528 45.276 282.112 44.956 281.8C44.636 281.48 44.192 281.32 43.624 281.32C43.352 281.32 43.1 281.368 42.868 281.464C42.644 281.56 42.448 281.7 42.28 281.884C42.12 282.06 41.992 282.272 41.896 282.52C41.808 282.768 41.764 283.04 41.764 283.336V284.584H41.908C42.1 284.232 42.372 283.956 42.724 283.756C43.084 283.556 43.484 283.456 43.924 283.456C44.308 283.456 44.664 283.52 44.992 283.648C45.32 283.768 45.6 283.948 45.832 284.188C46.072 284.428 46.256 284.72 46.384 285.064C46.52 285.4 46.588 285.784 46.588 286.216V286.36C46.588 286.776 46.512 287.156 46.36 287.5C46.216 287.844 46.012 288.14 45.748 288.388C45.492 288.636 45.184 288.828 44.824 288.964C44.472 289.1 44.088 289.168 43.672 289.168C43.256 289.168 42.868 289.1 42.508 288.964C42.156 288.828 41.848 288.64 41.584 288.4C41.328 288.152 41.124 287.86 40.972 287.524C40.828 287.18 40.756 286.804 40.756 286.396V283.336C40.756 282.896 40.832 282.496 40.984 282.136C41.136 281.776 41.344 281.472 41.608 281.224C41.872 280.968 42.176 280.772 42.52 280.636C42.872 280.5 43.248 280.432 43.648 280.432C44.048 280.432 44.42 280.492 44.764 280.612C45.108 280.732 45.404 280.908 45.652 281.14C45.9 281.364 46.092 281.64 46.228 281.968C46.372 282.288 46.444 282.648 46.444 283.048H45.436ZM43.672 288.28C43.96 288.28 44.22 288.236 44.452 288.148C44.692 288.052 44.896 287.92 45.064 287.752C45.232 287.584 45.36 287.384 45.448 287.152C45.536 286.92 45.58 286.664 45.58 286.384V286.24C45.58 285.96 45.532 285.704 45.436 285.472C45.34 285.24 45.208 285.04 45.04 284.872C44.872 284.704 44.668 284.576 44.428 284.488C44.196 284.392 43.944 284.344 43.672 284.344C43.4 284.344 43.148 284.392 42.916 284.488C42.684 284.584 42.48 284.716 42.304 284.884C42.136 285.052 42.004 285.248 41.908 285.472C41.812 285.696 41.764 285.936 41.764 286.192V286.42C41.764 286.684 41.808 286.932 41.896 287.164C41.984 287.388 42.112 287.584 42.28 287.752C42.448 287.92 42.648 288.052 42.88 288.148C43.12 288.236 43.384 288.28 43.672 288.28ZM48.1877 283.864C48.1877 282.776 48.4477 281.932 48.9677 281.332C49.4877 280.732 50.2117 280.432 51.1397 280.432C52.0677 280.432 52.7917 280.732 53.3117 281.332C53.8317 281.932 54.0917 282.776 54.0917 283.864V285.736C54.0917 286.856 53.8317 287.708 53.3117 288.292C52.7917 288.876 52.0677 289.168 51.1397 289.168C50.2117 289.168 49.4877 288.876 48.9677 288.292C48.4477 287.708 48.1877 286.856 48.1877 285.736V283.864ZM51.1397 288.256C51.7877 288.256 52.2717 288.032 52.5917 287.584C52.9197 287.128 53.0837 286.488 53.0837 285.664V283.936C53.0837 283.552 53.0437 283.204 52.9637 282.892C52.8837 282.572 52.7597 282.3 52.5917 282.076C52.4317 281.844 52.2277 281.664 51.9797 281.536C51.7397 281.408 51.4597 281.344 51.1397 281.344C50.8117 281.344 50.5277 281.408 50.2877 281.536C50.0477 281.664 49.8437 281.844 49.6757 282.076C49.5157 282.3 49.3957 282.572 49.3157 282.892C49.2357 283.204 49.1957 283.552 49.1957 283.936V285.664C49.1957 286.488 49.3557 287.128 49.6757 287.584C50.0037 288.032 50.4917 288.256 51.1397 288.256ZM50.3717 284.8C50.3717 284.592 50.4477 284.412 50.5997 284.26C50.7517 284.108 50.9317 284.032 51.1397 284.032C51.3477 284.032 51.5277 284.108 51.6797 284.26C51.8317 284.412 51.9077 284.592 51.9077 284.8C51.9077 285.008 51.8317 285.188 51.6797 285.34C51.5277 285.492 51.3477 285.568 51.1397 285.568C50.9317 285.568 50.7517 285.492 50.5997 285.34C50.4477 285.188 50.3717 285.008 50.3717 284.8Z" fill="white"/>
<path d="M0 325H20" stroke="white" stroke-opacity="0.4" stroke-width="1.4"/>
<path d="M0 357H20" stroke="white" stroke-opacity="0.4" stroke-width="1.4"/>
<path d="M0 389H20" stroke="white" stroke-opacity="0.4" stroke-width="1.4"/>
<path d="M0 421H20" stroke="white" stroke-opacity="0.4" stroke-width="1.4"/>
<path d="M0 453H20" stroke="white" stroke-opacity="0.4" stroke-width="1.4"/>
<path d="M0 485H20" stroke="white" stroke-opacity="0.4" stroke-width="1.4"/>
<path d="M0 526H32" stroke="white" stroke-width="1.4"/>
<path d="M40.864 522.6H46.48V524.064L42.94 529.416C42.772 529.672 42.644 529.892 42.556 530.076C42.468 530.26 42.424 530.448 42.424 530.64V531H41.44V530.568C41.44 530.424 41.452 530.288 41.476 530.16C41.508 530.032 41.552 529.904 41.608 529.776C41.672 529.64 41.748 529.5 41.836 529.356C41.932 529.204 42.044 529.032 42.172 528.84L45.616 523.68V523.536H40.864V522.6ZM48.1877 525.864C48.1877 524.776 48.4477 523.932 48.9677 523.332C49.4877 522.732 50.2117 522.432 51.1397 522.432C52.0677 522.432 52.7917 522.732 53.3117 523.332C53.8317 523.932 54.0917 524.776 54.0917 525.864V527.736C54.0917 528.856 53.8317 529.708 53.3117 530.292C52.7917 530.876 52.0677 531.168 51.1397 531.168C50.2117 531.168 49.4877 530.876 48.9677 530.292C48.4477 529.708 48.1877 528.856 48.1877 527.736V525.864ZM51.1397 530.256C51.7877 530.256 52.2717 530.032 52.5917 529.584C52.9197 529.128 53.0837 528.488 53.0837 527.664V525.936C53.0837 525.552 53.0437 525.204 52.9637 524.892C52.8837 524.572 52.7597 524.3 52.5917 524.076C52.4317 523.844 52.2277 523.664 51.9797 523.536C51.7397 523.408 51.4597 523.344 51.1397 523.344C50.8117 523.344 50.5277 523.408 50.2877 523.536C50.0477 523.664 49.8437 523.844 49.6757 524.076C49.5157 524.3 49.3957 524.572 49.3157 524.892C49.2357 525.204 49.1957 525.552 49.1957 525.936V527.664C49.1957 528.488 49.3557 529.128 49.6757 529.584C50.0037 530.032 50.4917 530.256 51.1397 530.256ZM50.3717 526.8C50.3717 526.592 50.4477 526.412 50.5997 526.26C50.7517 526.108 50.9317 526.032 51.1397 526.032C51.3477 526.032 51.5277 526.108 51.6797 526.26C51.8317 526.412 51.9077 526.592 51.9077 526.8C51.9077 527.008 51.8317 527.188 51.6797 527.34C51.5277 527.492 51.3477 527.568 51.1397 527.568C50.9317 527.568 50.7517 527.492 50.5997 527.34C50.4477 527.188 50.3717 527.008 50.3717 526.8Z" fill="white"/>
<path d="M0 567H20" stroke="white" stroke-opacity="0.4" stroke-width="1.4"/>
</svg>
